<svg width="131" height="102" viewBox="0 0 131 102" fill="none" xmlns="http://www.w3.org/2000/svg">
<g filter="url(#filter0_f_2_363)">
<ellipse cx="112.899" cy="40.6746" rx="12.627" ry="10.678" fill="#3A416F"/>
<ellipse cx="112.899" cy="40.6746" rx="12.627" ry="10.678" fill="#3A416F"/>
</g>
<g filter="url(#filter1_f_2_363)">
<ellipse cx="67.5103" cy="6.42609" rx="17.2381" ry="10.3273" fill="#3A416F"/>
<ellipse cx="67.5103" cy="6.42609" rx="17.2381" ry="10.3273" fill="#3A416F"/>
</g>
<g filter="url(#filter2_i_2_363)">
<path d="M85.4244 0.217363C80.9618 -5.59263 73.2373 -8.38167 65.7793 -6.21133C62.0284 -5.11631 58.7266 -2.84916 56.3574 0.258133C53.9882 3.36542 52.6761 7.14961 52.6132 11.0566C52.5502 14.9635 53.7398 18.788 56.0077 21.97C58.2755 25.152 61.5026 27.5244 65.2163 28.7396C68.93 29.9549 72.9352 29.9493 76.6455 28.7236C80.3557 27.4979 83.5761 25.1165 85.8351 21.9282C88.094 18.7399 89.2728 14.912 89.1989 11.0053C89.125 7.09849 87.8023 3.318 85.4244 0.217363Z" fill="url(#paint0_linear_2_363)"/>
</g>
<g clip-path="url(#clip0_2_363)">
<path d="M77.3005 27.6056C74.6098 28.534 71.7396 28.8221 68.9179 28.4472C66.0963 28.0722 63.401 27.0445 61.046 25.4456C58.6911 23.8467 56.7414 21.7208 55.3519 19.2365C53.9624 16.7523 53.1712 13.9783 53.0414 11.1348C52.8532 15.17 54.0403 19.1495 56.4083 22.4222C58.7763 25.6949 62.185 28.0669 66.0765 29.1501C69.9681 30.2334 74.1121 29.9637 77.8305 28.3851C81.5488 26.8066 84.6213 24.0128 86.5451 20.4608C84.3319 23.793 81.0831 26.3039 77.3005 27.6056Z" fill="url(#paint1_linear_2_363)"/>
<g filter="url(#filter3_d_2_363)">
<path d="M64.7851 -9.92892C61.98 -9.11345 59.3631 -7.75328 57.0838 -5.92612C54.8046 -4.09895 52.9077 -1.84061 51.5015 0.71989C50.0954 3.28039 49.2075 6.09286 48.8886 8.99662C48.5697 11.9004 48.8261 14.8385 49.6431 17.6431C53.0756 29.4382 65.42 36.2175 77.2152 32.785C80.0199 31.969 82.6364 30.6084 84.9153 28.7811C87.1941 26.9538 89.0908 24.6955 90.4968 22.1352C91.9029 19.5749 92.7909 16.7627 93.1101 13.8592C93.4293 10.9556 93.1734 8.01767 92.3571 5.21304C88.9246 -6.58212 76.5802 -13.3614 64.7851 -9.92892ZM87.4317 18.3656C86.2609 21.1397 84.4069 23.5722 82.0425 25.4366C79.678 27.3009 76.8801 28.5363 73.9094 29.0277C70.9388 29.5192 67.8921 29.2505 65.0532 28.2469C62.2143 27.2434 59.6757 25.5374 57.674 23.2882C55.6722 21.0389 54.2724 18.3195 53.605 15.3833C52.9376 12.4472 53.0244 9.3899 53.8572 6.49633C54.69 3.60277 56.2418 0.967113 58.3679 -1.16501C60.494 -3.29714 63.1253 -4.85634 66.0165 -5.69732C73.2808 -7.81128 80.8046 -5.09469 85.1513 0.564392C87.0684 3.06637 88.2893 6.03118 88.6898 9.15769C89.0903 12.2842 88.6563 15.461 87.4317 18.3655L87.4317 18.3656Z" fill="url(#paint2_linear_2_363)"/>
</g>
<path opacity="0.7" d="M88.1264 6.44411C87.5098 4.31599 86.5012 2.32176 85.1523 0.564026C80.8056 -5.09506 73.2818 -7.81164 66.0175 -5.69768C63.3731 -4.93057 60.9427 -3.5607 58.9171 -1.69572C56.8915 0.169254 55.326 2.47854 54.3436 5.05068C60.9491 4.6174 76.9011 5.19185 87.1251 19.0515C87.2323 18.8248 87.3348 18.596 87.4327 18.365C89.0328 14.5905 89.2779 10.3787 88.1264 6.44411Z" fill="url(#paint3_linear_2_363)"/>
<g filter="url(#filter4_d_2_363)">
<path d="M69.0987 10.3277C68.543 9.88679 67.8342 9.57766 66.8477 9.54166C67.5517 10.3787 67.2971 11.2135 66.9123 12.4728C66.7799 12.9056 66.6294 13.3982 66.5091 13.9605L69.5465 16.8593L70.5111 11.9842C70.1027 11.3829 69.6657 10.7767 69.0992 10.3275L69.0987 10.3277ZM70.6269 10.4016C71.0994 6.94859 73.4664 6.23269 76.2417 5.39339C76.6927 5.25698 77.1557 5.11709 77.635 4.95461L78.6071 0.841356L58.8711 6.52238L61.8443 9.47995C62.0943 9.41693 62.3323 9.35526 62.5688 9.29402C63.889 8.95209 65.1747 8.61911 66.5761 8.50703L66.6153 8.50401C67.9909 8.49586 68.9723 8.91063 69.7425 9.52176C70.0671 9.78349 70.3635 10.0784 70.6269 10.4016ZM75.0026 10.175C73.975 9.23853 73.2616 8.58812 73.3196 7.71055C72.2755 8.45206 71.5993 9.59241 71.577 11.6572L75.0469 15.0737L76.0871 11.203C75.7027 10.8127 75.3324 10.4764 75.0026 10.175ZM75.8209 16.1774L74.5148 21.8335L74.3138 22.7045L73.6589 22.0975L70.1998 18.8922L70.1966 18.9082L69.5146 18.2574L65.589 14.5118L65.3865 14.3186L65.4378 14.0437C65.5777 13.2966 65.7625 12.692 65.9221 12.171C66.266 11.045 66.4639 10.3979 65.4442 9.69143C64.5656 9.84286 63.706 10.0654 62.8296 10.2925C62.484 10.382 62.1365 10.472 61.8098 10.5527L61.5255 10.6227L61.3189 10.4174L57.5177 6.63566L56.8963 6.01752L57.7397 5.77453L79.1694 -0.394239L80.0191 -0.63879L79.816 0.220345L78.5755 5.46903L78.5107 5.74354L78.2439 5.83743C77.679 6.03651 77.0999 6.21151 76.5376 6.38164C75.8998 6.57429 75.287 6.75967 74.7226 6.98107C74.087 7.94195 74.6696 8.47415 75.7006 9.41127C76.1005 9.77588 76.5553 10.1901 77.037 10.6977L77.2353 10.9065L77.1602 11.1865L75.8209 16.1774ZM70.4357 17.7009L73.7064 20.7336L74.7477 16.2281L71.3807 12.9149L70.4357 17.7009Z" fill="url(#paint4_linear_2_363)"/>
</g>
</g>
<g filter="url(#filter5_i_2_363)">
<path d="M122.546 38.2404C122.267 33.6576 119.235 29.4989 114.601 28.0088C112.269 27.2612 109.759 27.2798 107.438 28.0619C105.118 28.844 103.108 30.3485 101.705 32.3551C100.301 34.3617 99.5769 36.765 99.6379 39.2131C99.6989 41.6611 100.542 44.0254 102.044 45.9595C103.546 47.8937 105.628 49.2962 107.984 49.9617C110.341 50.6272 112.849 50.5207 115.14 49.6578C117.432 48.795 119.388 47.221 120.72 45.1665C122.053 43.112 122.692 40.6848 122.546 38.2404Z" fill="url(#paint5_linear_2_363)"/>
</g>
<g clip-path="url(#clip1_2_363)">
<path d="M108.716 49.6111C106.993 49.1489 105.401 48.2914 104.068 47.1066C102.734 45.9218 101.695 44.4424 101.034 42.7858C100.372 41.1292 100.105 39.3411 100.256 37.5636C100.406 35.7861 100.969 34.0681 101.899 32.546C100.385 34.5753 99.6052 37.0582 99.6864 39.5885C99.7676 42.1187 100.705 44.5465 102.346 46.4746C103.986 48.4026 106.233 49.7167 108.717 50.2018C111.202 50.6869 113.778 50.3144 116.023 49.145C113.705 50.0987 111.137 50.2625 108.716 49.6111Z" fill="url(#paint6_linear_2_363)"/>
<g filter="url(#filter6_d_2_363)">
<path d="M115.389 25.7295C113.646 25.1687 111.81 24.9566 109.985 25.1056C108.16 25.2546 106.383 25.7616 104.754 26.5977C103.126 27.4338 101.678 28.5826 100.493 29.9785C99.3088 31.3744 98.4109 32.99 97.851 34.733C95.4944 42.0621 99.5254 49.9139 106.854 52.2705C108.597 52.8309 110.433 53.0426 112.258 52.8935C114.082 52.7443 115.859 52.2372 117.488 51.4012C119.117 50.5651 120.564 49.4164 121.749 48.0208C122.934 46.6251 123.832 45.0098 124.392 43.2671C126.749 35.9379 122.718 28.0861 115.389 25.7295ZM117.219 48.3682C115.638 49.3978 113.822 50.0104 111.94 50.1487C110.058 50.2871 108.171 49.9468 106.456 49.1596C104.741 48.3723 103.254 47.1637 102.132 45.6465C101.01 44.1292 100.29 42.3526 100.04 40.4822C99.79 38.6119 100.017 36.7086 100.701 34.9498C101.385 33.1911 102.503 31.634 103.951 30.4238C105.398 29.2135 107.129 28.3895 108.981 28.0284C110.833 27.6674 112.747 27.7811 114.543 28.3589C119.057 29.8103 122.01 33.861 122.282 38.3247C122.399 40.2966 121.993 42.2645 121.104 44.0285C120.214 45.7925 118.874 47.2897 117.219 48.3681L117.219 48.3682Z" fill="url(#paint7_linear_2_363)"/>
</g>
<path opacity="0.7" d="M121.763 42.4218C122.19 41.1004 122.366 39.711 122.282 38.3249C122.011 33.8612 119.057 29.8105 114.543 28.3591C112.901 27.8295 111.159 27.688 109.452 27.9456C107.746 28.2032 106.123 28.853 104.71 29.8438C108.292 31.9367 116.374 37.8326 116.819 48.6168C116.954 48.5367 117.088 48.4539 117.22 48.3683C119.375 46.9699 120.98 44.8689 121.763 42.4218Z" fill="url(#paint8_linear_2_363)"/>
<g filter="url(#filter7_d_2_363)">
<path d="M110.521 37.7615C110.387 37.3376 110.127 36.9283 109.628 36.5635C109.7 37.2451 109.274 37.5893 108.633 38.1081C108.412 38.2864 108.161 38.4894 107.901 38.7391L108.461 41.3102L110.673 39.1172C110.672 38.6617 110.658 38.1936 110.521 37.7616L110.521 37.7615ZM111.288 38.3361C112.745 36.7089 114.226 37.1678 115.961 37.7058C116.243 37.7933 116.533 37.8831 116.839 37.9669L118.787 36.1722L106.545 32.1967L107.051 34.7757C107.203 34.8307 107.348 34.8822 107.493 34.9334C108.298 35.2191 109.083 35.4974 109.85 35.9309L109.871 35.9431C110.588 36.4216 110.952 36.9813 111.138 37.5689C111.214 37.8187 111.265 38.0758 111.288 38.3361ZM113.64 39.7539C113.435 38.907 113.293 38.319 113.631 37.8837C112.828 37.9023 112.077 38.2572 111.341 39.3215L111.944 42.3131L113.842 40.6682C113.78 40.3307 113.705 40.0261 113.64 39.7539ZM111.959 43.1578L109.296 45.6364L108.886 46.0182L108.759 45.4732L108.087 42.595L108.08 42.6022L107.954 42.0249L107.23 38.7025L107.193 38.5312L107.316 38.4064C107.651 38.0676 107.959 37.8185 108.224 37.604C108.798 37.14 109.128 36.8734 108.846 36.1488C108.337 35.9191 107.813 35.733 107.278 35.5434C107.067 35.4686 106.855 35.3934 106.657 35.3207L106.485 35.2572L106.45 35.0782L105.803 31.7806L105.697 31.2416L106.22 31.4114L119.512 35.7279L120.039 35.8991L119.632 36.274L117.146 38.5641L117.016 38.6839L116.845 38.639C116.482 38.5441 116.12 38.4318 115.768 38.3228C115.369 38.1991 114.986 38.0803 114.615 37.9972C113.948 38.2731 114.064 38.7539 114.27 39.6023C114.35 39.9319 114.441 40.3066 114.513 40.7392L114.543 40.9172L114.405 41.0362L111.959 43.1578ZM108.628 42.0592L109.262 44.7816L111.383 42.8075L110.798 39.9057L108.628 42.0592Z" fill="url(#paint9_linear_2_363)"/>
</g>
</g>
<defs>
<filter id="filter0_f_2_363" x="50.2718" y="-20.0034" width="125.254" height="121.356" filterUnits="userSpaceOnUse" color-interpolation-filters="sRGB">
<feFlood flood-opacity="0" result="BackgroundImageFix"/>
<feBlend mode="normal" in="SourceGraphic" in2="BackgroundImageFix" result="shape"/>
<feGaussianBlur stdDeviation="25" result="effect1_foregroundBlur_2_363"/>
</filter>
<filter id="filter1_f_2_363" x="0.272209" y="-53.9012" width="134.476" height="120.655" filterUnits="userSpaceOnUse" color-interpolation-filters="sRGB">
<feFlood flood-opacity="0" result="BackgroundImageFix"/>
<feBlend mode="normal" in="SourceGraphic" in2="BackgroundImageFix" result="shape"/>
<feGaussianBlur stdDeviation="25" result="effect1_foregroundBlur_2_363"/>
</filter>
<filter id="filter2_i_2_363" x="52.6108" y="-6.94543" width="36.5914" height="36.5924" filterUnits="userSpaceOnUse" color-interpolation-filters="sRGB">
<feFlood flood-opacity="0" result="BackgroundImageFix"/>
<feBlend mode="normal" in="SourceGraphic" in2="BackgroundImageFix" result="shape"/>
<feColorMatrix in="SourceAlpha" type="matrix" values="0 0 0 0 0 0 0 0 0 0 0 0 0 0 0 0 0 0 127 0" result="hardAlpha"/>
<feOffset/>
<feGaussianBlur stdDeviation="1.07777"/>
<feComposite in2="hardAlpha" operator="arithmetic" k2="-1" k3="1"/>
<feColorMatrix type="matrix" values="0 0 0 0 0 0 0 0 0 0 0 0 0 0 0 0 0 0 0.6 0"/>
<feBlend mode="normal" in2="shape" result="effect1_innerShadow_2_363"/>
</filter>
<filter id="filter3_d_2_363" x="47.601" y="-11.9754" width="46.797" height="46.8068" filterUnits="userSpaceOnUse" color-interpolation-filters="sRGB">
<feFlood flood-opacity="0" result="BackgroundImageFix"/>
<feColorMatrix in="SourceAlpha" type="matrix" values="0 0 0 0 0 0 0 0 0 0 0 0 0 0 0 0 0 0 127 0" result="hardAlpha"/>
<feOffset/>
<feGaussianBlur stdDeviation="0.577375"/>
<feComposite in2="hardAlpha" operator="out"/>
<feColorMatrix type="matrix" values="0 0 0 0 0 0 0 0 0 0 0 0 0 0 0 0 0 0 0.4 0"/>
<feBlend mode="normal" in2="BackgroundImageFix" result="effect1_dropShadow_2_363"/>
<feBlend mode="normal" in="SourceGraphic" in2="effect1_dropShadow_2_363" result="shape"/>
</filter>
<filter id="filter4_d_2_363" x="54.9718" y="-2.56338" width="27.1258" height="27.3464" filterUnits="userSpaceOnUse" color-interpolation-filters="sRGB">
<feFlood flood-opacity="0" result="BackgroundImageFix"/>
<feColorMatrix in="SourceAlpha" type="matrix" values="0 0 0 0 0 0 0 0 0 0 0 0 0 0 0 0 0 0 127 0" result="hardAlpha"/>
<feOffset dx="0.0769833" dy="0.0769833"/>
<feGaussianBlur stdDeviation="1.00078"/>
<feComposite in2="hardAlpha" operator="out"/>
<feColorMatrix type="matrix" values="0 0 0 0 0.0666667 0 0 0 0 0.0784314 0 0 0 0 0.14902 0 0 0 1 0"/>
<feBlend mode="normal" in2="BackgroundImageFix" result="effect1_dropShadow_2_363"/>
<feBlend mode="normal" in="SourceGraphic" in2="effect1_dropShadow_2_363" result="shape"/>
</filter>
<filter id="filter5_i_2_363" x="99.6343" y="27.4614" width="22.9319" height="22.9319" filterUnits="userSpaceOnUse" color-interpolation-filters="sRGB">
<feFlood flood-opacity="0" result="BackgroundImageFix"/>
<feBlend mode="normal" in="SourceGraphic" in2="BackgroundImageFix" result="shape"/>
<feColorMatrix in="SourceAlpha" type="matrix" values="0 0 0 0 0 0 0 0 0 0 0 0 0 0 0 0 0 0 127 0" result="hardAlpha"/>
<feOffset/>
<feGaussianBlur stdDeviation="0.675436"/>
<feComposite in2="hardAlpha" operator="arithmetic" k2="-1" k3="1"/>
<feColorMatrix type="matrix" values="0 0 0 0 0 0 0 0 0 0 0 0 0 0 0 0 0 0 0.6 0"/>
<feBlend mode="normal" in2="shape" result="effect1_innerShadow_2_363"/>
</filter>
<filter id="filter6_d_2_363" x="96.4544" y="24.3357" width="29.3341" height="29.3278" filterUnits="userSpaceOnUse" color-interpolation-filters="sRGB">
<feFlood flood-opacity="0" result="BackgroundImageFix"/>
<feColorMatrix in="SourceAlpha" type="matrix" values="0 0 0 0 0 0 0 0 0 0 0 0 0 0 0 0 0 0 127 0" result="hardAlpha"/>
<feOffset/>
<feGaussianBlur stdDeviation="0.361841"/>
<feComposite in2="hardAlpha" operator="out"/>
<feColorMatrix type="matrix" values="0 0 0 0 0 0 0 0 0 0 0 0 0 0 0 0 0 0 0.4 0"/>
<feBlend mode="normal" in2="BackgroundImageFix" result="effect1_dropShadow_2_363"/>
<feBlend mode="normal" in="SourceGraphic" in2="effect1_dropShadow_2_363" result="shape"/>
</filter>
<filter id="filter7_d_2_363" x="104.491" y="30.0355" width="16.851" height="17.2853" filterUnits="userSpaceOnUse" color-interpolation-filters="sRGB">
<feFlood flood-opacity="0" result="BackgroundImageFix"/>
<feColorMatrix in="SourceAlpha" type="matrix" values="0 0 0 0 0 0 0 0 0 0 0 0 0 0 0 0 0 0 127 0" result="hardAlpha"/>
<feOffset dx="0.0482454" dy="0.0482454"/>
<feGaussianBlur stdDeviation="0.627191"/>
<feComposite in2="hardAlpha" operator="out"/>
<feColorMatrix type="matrix" values="0 0 0 0 0.0666667 0 0 0 0 0.0784314 0 0 0 0 0.14902 0 0 0 1 0"/>
<feBlend mode="normal" in2="BackgroundImageFix" result="effect1_dropShadow_2_363"/>
<feBlend mode="normal" in="SourceGraphic" in2="effect1_dropShadow_2_363" result="shape"/>
</filter>
<linearGradient id="paint0_linear_2_363" x1="65.7944" y1="-6.21571" x2="76.0186" y2="28.9183" gradientUnits="userSpaceOnUse">
<stop stop-color="#c749f4"/>
<stop offset="1" stop-color="#131526"/>
</linearGradient>
<linearGradient id="paint1_linear_2_363" x1="65.9632" y1="6.6658" x2="73.9539" y2="29.7701" gradientUnits="userSpaceOnUse">
<stop stop-color="#121320"/>
<stop offset="1" stop-color="#292D4E" stop-opacity="0.63"/>
</linearGradient>
<linearGradient id="paint2_linear_2_363" x1="64.785" y1="-9.92891" x2="77.2151" y2="32.785" gradientUnits="userSpaceOnUse">
<stop stop-color="#202644"/>
<stop offset="1" stop-color="#101323"/>
</linearGradient>
<linearGradient id="paint3_linear_2_363" x1="71.5517" y1="-5.22647" x2="70.8503" y2="7.31711" gradientUnits="userSpaceOnUse">
<stop stop-color="#16182A"/>
<stop offset="1" stop-color="#1F1F1F" stop-opacity="0"/>
</linearGradient>
<linearGradient id="paint4_linear_2_363" x1="69.7248" y1="7.04339" x2="74.2847" y2="22.713" gradientUnits="userSpaceOnUse">
<stop stop-color="#28E0B2"/>
<stop offset="0.9999" stop-color="#67FFD9"/>
<stop offset="1" stop-color="#16866A"/>
</linearGradient>
<linearGradient id="paint5_linear_2_363" x1="114.61" y1="28.0118" x2="107.59" y2="49.8428" gradientUnits="userSpaceOnUse">
<stop stop-color="#c749f4"/>
<stop offset="1" stop-color="#131526"/>
</linearGradient>
<linearGradient id="paint6_linear_2_363" x1="110.177" y1="34.7598" x2="106.219" y2="49.5607" gradientUnits="userSpaceOnUse">
<stop stop-color="#121320"/>
<stop offset="1" stop-color="#292D4E" stop-opacity="0.63"/>
</linearGradient>
<linearGradient id="paint7_linear_2_363" x1="115.388" y1="25.7295" x2="106.854" y2="52.2705" gradientUnits="userSpaceOnUse">
<stop stop-color="#202644"/>
<stop offset="1" stop-color="#101323"/>
</linearGradient>
<linearGradient id="paint8_linear_2_363" x1="117.252" y1="30.5457" x2="112.486" y2="36.8129" gradientUnits="userSpaceOnUse">
<stop stop-color="#16182A"/>
<stop offset="1" stop-color="#1F1F1F" stop-opacity="0"/>
</linearGradient>
<linearGradient id="paint9_linear_2_363" x1="111.998" y1="36.2758" x2="108.868" y2="46.0123" gradientUnits="userSpaceOnUse">
<stop stop-color="#28E0B2"/>
<stop offset="0.9999" stop-color="#67FFD9"/>
<stop offset="1" stop-color="#16866A"/>
</linearGradient>
<clipPath id="clip0_2_363">
<rect width="44.4857" height="44.4857" fill="white" transform="translate(43.4281 -3.71387) rotate(-16.2254)"/>
</clipPath>
<clipPath id="clip1_2_363">
<rect width="27.8792" height="27.8792" fill="white" transform="translate(102.118 21.4625) rotate(17.8248)"/>
</clipPath>
</defs>
</svg>
